<svg xmlns="http://www.w3.org/2000/svg" xmlns:xlink="http://www.w3.org/1999/xlink" width="262.246" height="179.149" viewBox="0 0 262.246 179.149">
  <defs>
    <clipPath id="clip-path">
      <rect id="Rectangle_8" data-name="Rectangle 8" width="262.246" height="179.149"/>
    </clipPath>
  </defs>
  <g id="logo-leadportale" clip-path="url(#clip-path)">
    <g id="Gruppe_2" data-name="Gruppe 2">
      <path id="Pfad_1" data-name="Pfad 1" d="M102.524,97.751h5.414V126.5h16.208v5.477H102.524Z" transform="translate(-102.524 21.443)" fill="#fff"/>
      <g id="Gruppe_1" data-name="Gruppe 1" transform="translate(24.932)">
        <path id="Pfad_2" data-name="Pfad 2" d="M113.928,114.541v-.1c0-7.388,4.712-13.452,11.364-13.452,7.4,0,11.139,6.456,11.139,13.886,0,.542-.046,1.077-.085,1.663H119.255c.572,4.2,3.259,6.554,6.689,6.554,2.6,0,4.447-1.074,6.3-3.08l3.128,3.08a11.326,11.326,0,0,1-9.51,4.843c-6.742,0-11.934-5.43-11.934-13.4m17.218-1.9c-.351-3.818-2.375-6.8-5.9-6.8-3.256,0-5.549,2.787-6.033,6.8Z" transform="translate(-113.928 26.071)" fill="#fff"/>
        <path id="Pfad_3" data-name="Pfad 3" d="M141.764,127.265v-3.179a9.031,9.031,0,0,1-7.529,3.714c-4.4,0-8.28-2.787-8.28-7.97v-.1c0-5.725,4.008-8.46,9.424-8.46a17.744,17.744,0,0,1,6.429,1.077v-.49c0-3.571-2.027-5.528-5.724-5.528a14.851,14.851,0,0,0-6.653,1.613l-1.452-4.739a18.277,18.277,0,0,1,8.851-2.152c6.868,0,10.217,4.008,10.217,10.9v15.306Zm.134-10.81a13.9,13.9,0,0,0-5.332-1.024c-3.347,0-5.327,1.514-5.327,4.008v.1c0,2.446,1.98,3.81,4.49,3.81,3.523,0,6.169-2.2,6.169-5.422Z" transform="translate(-99.661 26.158)" fill="#fff"/>
        <path id="Pfad_4" data-name="Pfad 4" d="M137.963,119.981v-.1c0-8.557,5.236-13.4,10.783-13.4,3.835,0,6.254,2.154,7.932,4.55V97.146h5.327v35.7h-5.327v-4.307c-1.72,2.7-4.143,4.842-7.932,4.842-5.459,0-10.783-4.842-10.783-13.4m18.806,0v-.1c0-4.989-3.176-8.262-6.742-8.262-3.656,0-6.694,3.133-6.694,8.262v.1c0,4.991,3.084,8.264,6.694,8.264,3.568,0,6.742-3.324,6.742-8.264" transform="translate(-85.416 20.58)" fill="#fff"/>
        <path id="Pfad_5" data-name="Pfad 5" d="M152.287,97.751h12.151c7.176,0,11.712,4.545,11.712,11.438v.1c0,7.678-5.548,11.688-12.33,11.688H157.7v11h-5.415ZM164,115.545c4.091,0,6.646-2.539,6.646-6.106v-.1c0-4.011-2.593-6.115-6.646-6.115h-6.3v12.319Z" transform="translate(-68.425 21.443)" fill="#8dc63f"/>
        <path id="Pfad_6" data-name="Pfad 6" d="M164.779,114.587v-.1c0-7.383,5.284-13.5,12.415-13.5s12.378,6.017,12.378,13.4v.1c0,7.337-5.286,13.449-12.462,13.449-7.091,0-12.331-6.017-12.331-13.351m19.464,0v-.1c0-4.543-2.949-8.309-7.131-8.309-4.272,0-7,3.714-7,8.211v.1c0,4.5,2.951,8.315,7.087,8.315,4.319,0,7.047-3.765,7.047-8.217" transform="translate(-53.606 26.071)" fill="#8dc63f"/>
        <path id="Pfad_7" data-name="Pfad 7" d="M178.6,101.51h5.327v5.816c1.452-3.859,4.142-6.5,8.233-6.307v6.256h-.3c-4.671,0-7.928,3.378-7.928,10.22v9.835H178.6Z" transform="translate(-37.21 26.094)" fill="#8dc63f"/>
        <path id="Pfad_8" data-name="Pfad 8" d="M189.022,124.061V110.469h-2.948v-5.083h2.948V98.3h5.33v7.09h6.254v5.085h-6.254v12.664c0,2.3,1.054,3.224,2.859,3.224a6.591,6.591,0,0,0,3.3-.881v4.842a8.626,8.626,0,0,1-4.8,1.32c-3.917,0-6.692-1.906-6.692-7.578" transform="translate(-28.345 22.221)" fill="#8dc63f"/>
        <path id="Pfad_9" data-name="Pfad 9" d="M210.264,127.265v-3.179a9.056,9.056,0,0,1-7.529,3.714c-4.4,0-8.28-2.787-8.28-7.97v-.1c0-5.725,4.009-8.46,9.424-8.46a17.745,17.745,0,0,1,6.429,1.077v-.49c0-3.571-2.026-5.528-5.724-5.528a14.851,14.851,0,0,0-6.653,1.613l-1.452-4.739a18.276,18.276,0,0,1,8.854-2.152c6.867,0,10.215,4.008,10.215,10.9v15.306Zm.134-10.81a13.9,13.9,0,0,0-5.33-1.024c-3.349,0-5.322,1.514-5.322,4.008v.1c0,2.446,1.973,3.81,4.485,3.81,3.524,0,6.168-2.2,6.168-5.422Z" transform="translate(-18.404 26.158)" fill="#8dc63f"/>
        <rect id="Rechteck_1" data-name="Rechteck 1" width="5.324" height="35.697" transform="translate(203.801 117.726)" fill="#8dc63f"/>
        <path id="Pfad_10" data-name="Pfad 10" d="M212.185,114.541v-.1c0-7.388,4.712-13.452,11.362-13.452,7.4,0,11.141,6.456,11.141,13.886,0,.542-.046,1.077-.089,1.663H217.514c.57,4.2,3.26,6.554,6.691,6.554,2.6,0,4.449-1.074,6.3-3.08l3.124,3.08a11.322,11.322,0,0,1-9.512,4.843c-6.735,0-11.934-5.43-11.934-13.4m17.218-1.9c-.351-3.818-2.377-6.8-5.9-6.8-3.257,0-5.549,2.787-6.033,6.8Z" transform="translate(2.627 26.071)" fill="#8dc63f"/>
        <rect id="Rechteck_2" data-name="Rechteck 2" width="1.367" height="1.558" transform="translate(214.781 122.18)" fill="#f7941e"/>
        <path id="Pfad_11" data-name="Pfad 11" d="M213.122,100.263v-.024a3.288,3.288,0,0,1,.81-2.227,2.659,2.659,0,0,1,2-.916,2.583,2.583,0,0,1,2.16,1.039l-.768.923a1.753,1.753,0,0,0-1.4-.754,1.565,1.565,0,0,0-1.141.594,1.931,1.931,0,0,0-.416,1.321v.02a1.944,1.944,0,0,0,.435,1.353,1.57,1.57,0,0,0,1.183.581,1.845,1.845,0,0,0,1.407-.744l.747.816a2.7,2.7,0,0,1-4.206.231,3.251,3.251,0,0,1-.81-2.21" transform="translate(3.74 20.503)" fill="#f7941e"/>
        <path id="Pfad_12" data-name="Pfad 12" d="M215.611,100.262v-.024a2.9,2.9,0,1,1,5.774-.02v.02a3.32,3.32,0,0,1-.857,2.244,2.683,2.683,0,0,1-2.044.888,2.655,2.655,0,0,1-2.027-.881,3.286,3.286,0,0,1-.846-2.226m4.535,0v-.024a1.978,1.978,0,0,0-.462-1.359,1.6,1.6,0,0,0-1.2-.575,1.555,1.555,0,0,0-1.188.566,1.928,1.928,0,0,0-.442,1.349v.02a1.981,1.981,0,0,0,.458,1.353,1.6,1.6,0,0,0,1.193.58,1.558,1.558,0,0,0,1.192-.56,1.932,1.932,0,0,0,.45-1.348" transform="translate(6.692 20.505)" fill="#f7941e"/>
        <path id="Pfad_13" data-name="Pfad 13" d="M218.71,97.223h1.24v.91a1.916,1.916,0,0,1,1.65-1.039,1.692,1.692,0,0,1,1.614,1.059,2.152,2.152,0,0,1,1.835-1.059c1.181,0,1.9.834,1.9,2.3v3.841H225.7V99.82c0-.955-.4-1.47-1.1-1.47-.672,0-1.158.524-1.158,1.487v3.4h-1.237V99.807c0-.929-.413-1.453-1.1-1.453s-1.163.569-1.163,1.5v3.384h-1.239Z" transform="translate(10.368 20.502)" fill="#f7941e"/>
        <path id="Pfad_14" data-name="Pfad 14" d="M128.791,116.918h1.841l4.977,12.656h-2.1l-1.152-3.031h-5.346l-1.165,3.03h-2.04Zm2.839,7.669-1.951-5.032-1.943,5.032Z" transform="translate(-102.21 48.804)" fill="#f7941e"/>
        <path id="Pfad_15" data-name="Pfad 15" d="M133.795,116.955h1.991v10.562h5.949v2H133.8Z" transform="translate(-90.361 48.856)" fill="#f7941e"/>
        <path id="Pfad_16" data-name="Pfad 16" d="M142.074,116.955h1.991v10.562h5.949v2h-7.939Z" transform="translate(-80.539 48.856)" fill="#f7941e"/>
        <rect id="Rechteck_3" data-name="Rechteck 3" width="1.991" height="12.567" transform="translate(92.692 165.811)" fill="#f7941e"/>
        <path id="Pfad_17" data-name="Pfad 17" d="M162.32,116.955h1.841l6.065,8.694v-8.694h1.958v12.569h-1.666l-6.241-8.941v8.94H162.32Z" transform="translate(-56.523 48.856)" fill="#f7941e"/>
        <path id="Pfad_18" data-name="Pfad 18" d="M177.557,123.452v-.04c-.008-3.628,2.634-6.576,5.9-6.585s5.923,2.926,5.931,6.554v.031c.01,3.628-2.63,6.578-5.9,6.589s-5.924-2.921-5.934-6.549m9.748,0v-.04a4.585,4.585,0,0,0-1.073-3.137,3.708,3.708,0,0,0-2.774-1.331,3.655,3.655,0,0,0-2.763,1.312,4.526,4.526,0,0,0-1.057,3.124v.031a4.586,4.586,0,0,0,1.071,3.141,3.708,3.708,0,0,0,2.776,1.333,3.655,3.655,0,0,0,2.763-1.313,4.526,4.526,0,0,0,1.057-3.124" transform="translate(-38.449 48.681)" fill="#f7941e"/>
        <path id="Pfad_19" data-name="Pfad 19" d="M187.772,116.955h1.844l6.063,8.694v-8.694h1.956v12.569h-1.666l-6.24-8.941v8.94h-1.957Z" transform="translate(-26.331 48.856)" fill="#f7941e"/>
        <path id="Pfad_20" data-name="Pfad 20" d="M197.319,116.955h8.388v1.972h-6.4V122.2h5.674v1.98H199.3v3.373h6.482v1.973h-8.468Z" transform="translate(-15.006 48.856)" fill="#f7941e"/>
        <path id="Pfad_21" data-name="Pfad 21" d="M179.8,48.65h-1.5L157.375,64.032v79.227L178.3,127.874V117.615h.424c18.763,0,32.46-15.144,32.46-34.9v-.241c0-18.559-12.285-33.827-31.382-33.827m10.466,35.144c0,6.589-4.535,15.628-11.97,15.628V68.183c-.04,0-.072-.018-.111-.018h.111v.018c7.475.081,11.97,8.226,11.97,15.373Z" transform="translate(-62.388 -48.65)" fill="#8dc63f"/>
        <path id="Pfad_22" data-name="Pfad 22" d="M163.935,99.419V64.032L143.013,48.65v68.965h31.4v-18.2Z" transform="translate(-79.425 -48.65)" fill="#fff"/>
      </g>
    </g>
  </g>
</svg>
